<svg version="1.1" id="Layer_1" xmlns="http://www.w3.org/2000/svg" xmlns:xlink="http://www.w3.org/1999/xlink" x="0px" y="0px"
	 width="100%" viewBox="0 0 448 243" enable-background="new 0 0 448 243" xml:space="preserve">
<path fill="#FFFFFF" opacity="1.000000" stroke="none" 
	d="
M422.000000,244.000000 
	C281.333344,244.000000 141.166718,244.000000 1.000057,244.000000 
	C1.000038,163.000046 1.000038,82.000076 1.000019,1.000089 
	C150.333267,1.000059 299.666534,1.000059 448.999817,1.000030 
	C448.999878,81.999916 448.999878,162.999832 448.999939,243.999878 
	C440.166656,244.000000 431.333344,244.000000 422.000000,244.000000 
M368.806091,113.417870 
	C370.177551,113.417870 371.549042,113.417870 373.156586,113.417870 
	C373.156586,118.760628 373.072845,123.408234 373.175934,128.051697 
	C373.335754,135.249863 376.084961,138.251144 385.101257,139.827469 
	C378.462708,131.553360 379.700958,122.738228 380.071136,113.894669 
	C381.428314,113.388275 382.780731,112.883675 385.253357,111.961082 
	C382.721588,111.041580 381.347229,110.542427 379.687134,109.939507 
	C379.687134,106.071915 379.687134,102.342216 379.687134,98.765465 
	C370.443726,98.751488 374.189972,106.139336 372.912445,110.112740 
	C370.973053,110.809143 369.469299,111.349136 367.173187,111.761131 
	C364.676178,111.858147 362.176331,111.911903 359.683716,112.075821 
	C358.820129,112.132607 357.901215,112.785805 357.133453,112.611671 
	C353.969208,111.893974 350.853333,110.963097 346.536652,109.788750 
	C351.601135,120.529198 351.359161,129.674835 347.556885,138.797195 
	C351.709137,138.797195 355.711639,138.797195 358.392365,138.797195 
	C357.868835,132.983368 357.136353,127.509499 356.942108,122.016602 
	C356.700104,115.174774 358.511688,114.000542 365.330475,115.560860 
	C366.064148,115.728745 367.104370,114.557083 368.806091,113.417870 
M212.622925,138.573532 
	C215.325958,136.194153 218.029007,133.814789 220.732056,131.435410 
	C220.189011,130.803482 219.645950,130.171539 219.102905,129.539612 
	C217.870026,130.531906 216.439163,131.360840 215.452591,132.556396 
	C214.112869,134.179947 213.113068,136.083984 211.130539,137.958313 
	C203.882996,138.558350 198.518448,133.247955 198.263748,124.906647 
	C205.864395,124.906647 213.457809,124.906647 221.061859,124.906647 
	C220.641769,117.320366 216.816116,112.580139 209.836319,110.695145 
	C204.155884,109.161057 197.484055,111.646217 194.045670,116.576897 
	C190.535751,121.610176 190.627075,129.100388 194.256317,133.854996 
	C198.567047,139.502441 204.754593,141.203522 212.622925,138.573532 
M159.035934,133.348389 
	C159.035934,135.162796 159.035934,136.977188 159.035934,138.044205 
	C163.300522,138.427567 167.176636,138.664139 171.021957,139.146317 
	C177.815826,139.998260 183.124313,137.516022 186.919281,131.998306 
	C189.993988,127.527824 189.716415,121.358994 186.644943,116.959541 
	C183.342728,112.229568 176.372986,109.792328 170.163132,111.222054 
	C168.787643,111.538734 167.432541,111.943863 165.401611,112.486252 
	C165.401611,107.306252 165.401611,102.746162 165.401611,98.291733 
	C161.951385,98.291733 159.058197,98.291733 157.283737,98.291733 
	C157.885696,104.163536 158.687439,109.772537 158.974701,115.407761 
	C159.262497,121.053513 159.036667,126.725441 159.035934,133.348389 
M227.516876,120.955765 
	C223.405640,124.436989 222.568924,128.767899 224.747040,133.509583 
	C226.908279,138.214493 231.027771,139.471771 235.937683,139.181000 
	C239.360443,138.978287 242.804886,139.141922 246.295746,139.141922 
	C246.295746,132.119812 246.721909,125.637276 246.165115,119.240295 
	C245.693100,113.817253 240.982422,110.633621 234.553879,110.519005 
	C230.172714,110.440903 227.143372,112.412323 226.541962,117.425491 
	C228.761749,116.813461 230.474274,115.481056 232.318390,114.366356 
	C233.659302,113.555817 235.346039,112.301704 236.562988,112.587807 
	C237.776962,112.873207 238.854538,114.709389 239.508743,116.093971 
	C240.020187,117.176384 239.792557,118.607994 239.790771,118.585274 
	C235.604614,119.277802 231.854889,119.898132 227.516876,120.955765 
M324.746185,136.785873 
	C331.061218,137.808365 337.376221,138.830856 344.029083,139.908051 
	C344.029083,132.439926 344.204254,126.454926 343.976013,120.485359 
	C343.778503,115.320145 340.234100,111.852303 334.813660,110.899399 
	C328.675964,109.820404 326.116028,111.133179 322.940002,117.793243 
	C325.355835,117.013458 327.132202,116.618240 328.747711,115.873917 
	C330.806793,114.925232 332.735779,113.694252 334.720856,112.584961 
	C335.810547,114.730415 336.900269,116.875870 338.600250,120.222839 
	C331.257904,118.128899 325.924683,118.222664 322.541107,123.903755 
	C319.912048,128.318039 320.852203,132.522812 324.746185,136.785873 
M259.777618,129.025131 
	C259.777618,123.919365 259.777618,118.813599 259.777618,113.900688 
	C261.539764,113.282852 262.790192,112.844437 265.181915,112.005859 
	C262.616211,111.054932 261.231079,110.541565 259.497406,109.899010 
	C259.497406,106.058533 259.497406,102.334068 259.497406,98.717461 
	C250.768600,99.073845 253.658539,105.653656 252.912094,110.101990 
	C251.389160,110.643257 250.034622,111.124680 247.330933,112.085609 
	C250.170837,112.981796 251.582123,113.427162 253.043289,113.888260 
	C253.043289,118.801537 252.981171,123.459824 253.057724,128.115814 
	C253.175064,135.251770 256.101288,138.418457 264.353699,139.612793 
	C262.716614,136.071136 261.291962,132.989044 259.777618,129.025131 
M275.717438,139.553574 
	C280.269073,139.492920 285.280518,139.677338 286.923004,134.284409 
	C288.611298,128.741028 284.433411,125.776497 280.483185,123.131264 
	C278.002258,121.469917 275.259125,120.193695 272.820435,118.478973 
	C271.868622,117.809708 270.762817,116.283028 270.937653,115.381653 
	C271.123352,114.424187 272.777130,113.042908 273.732849,113.086800 
	C275.904968,113.186546 278.114197,113.862831 280.165955,114.667793 
	C281.357330,115.135208 282.272919,116.305595 283.312622,117.159653 
	C283.786163,116.830170 284.259735,116.500679 284.733276,116.171196 
	C283.997192,114.679474 283.416016,112.021530 282.497925,111.899559 
	C278.688660,111.393463 274.426025,110.647659 270.981171,111.852356 
	C264.849030,113.996849 264.477142,119.882950 269.716888,123.729195 
	C272.526428,125.791534 275.735748,127.349724 278.365326,129.601715 
	C279.958832,130.966431 280.788971,133.222534 281.962036,135.078171 
	C279.753418,135.802246 277.552673,137.049500 275.333649,137.082932 
	C273.595062,137.109131 271.788635,135.715332 270.098328,134.794495 
	C268.947266,134.167404 267.944672,133.267807 266.599396,132.289047 
	C265.503357,135.733994 265.949066,137.591766 269.068848,138.144135 
	C271.026245,138.490677 272.953827,139.005356 275.717438,139.553574 
M309.405609,114.812630 
	C311.898193,117.751457 314.731506,119.482086 318.737030,117.572945 
	C313.619507,109.624649 304.117828,107.731232 296.030426,112.910805 
	C289.365448,117.179390 287.428467,126.565453 291.863403,133.103119 
	C296.189178,139.479889 305.941193,141.996490 311.547272,138.182724 
	C302.729492,138.649063 296.631989,131.950943 296.584625,121.746246 
	C296.548035,113.861526 301.612762,110.777542 309.405609,114.812630 
M102.874435,125.492775 
	C102.874435,116.648552 102.874435,107.804329 102.874435,98.960098 
	C102.304611,98.979591 101.734779,98.999077 101.164955,99.018562 
	C101.164955,112.659256 101.164955,126.299950 101.164955,139.940643 
	C101.734779,139.955994 102.304604,139.971329 102.874428,139.986679 
	C102.874428,135.487167 102.874428,130.987640 102.874435,125.492775 
M104.621620,117.515717 
	C104.621620,123.526672 104.621620,129.537628 104.621620,135.548584 
	C105.196999,135.529556 105.772369,135.510529 106.347748,135.491501 
	C106.347748,124.831284 106.347748,114.171066 106.347748,103.510857 
	C105.772423,103.492989 105.197098,103.475121 104.621773,103.457253 
	C104.621773,107.813560 104.621773,112.169861 104.621620,117.515717 
M90.573273,130.207520 
	C90.573463,127.213310 90.573723,124.219109 90.573822,121.224899 
	C90.573921,118.397041 90.573845,115.569176 90.573853,112.741318 
	C90.573853,110.044373 90.573853,107.347435 90.573853,104.650490 
	C89.966858,104.680397 89.359863,104.710297 88.752869,104.740196 
	C88.752869,114.583099 88.752869,124.426010 88.752869,134.268921 
	C89.145836,134.287628 89.538803,134.306335 89.931770,134.325043 
	C90.144981,133.264465 90.358185,132.203903 90.573273,130.207520 
M96.474190,106.350708 
	C96.148560,115.505089 95.914139,124.655388 96.941025,133.773758 
	C98.063629,133.384827 98.600998,133.006653 98.607971,132.618927 
	C98.760155,124.154434 98.891594,115.688774 98.868301,107.223770 
	C98.866821,106.684044 97.577316,106.147865 96.474190,106.350708 
M84.085480,122.361343 
	C84.206055,124.579987 84.326630,126.798630 84.447205,129.017273 
	C84.900627,128.977310 85.354042,128.937332 85.807465,128.897369 
	C85.807465,122.605537 85.807465,116.313698 85.807465,110.021858 
	C85.233475,110.007484 84.659485,109.993111 84.085495,109.978729 
	C84.085495,113.788788 84.085495,117.598846 84.085480,122.361343 
M115.024208,110.753944 
	C114.804153,109.186607 114.584099,107.619263 114.364044,106.051926 
	C114.049507,106.108856 113.734962,106.165794 113.420425,106.222725 
	C113.420425,115.051636 113.420425,123.880547 113.420425,132.709457 
	C113.952293,132.723633 114.484161,132.737793 115.016029,132.751968 
	C115.016029,125.737381 115.016029,118.722786 115.024208,110.753944 
M92.669647,127.951187 
	C93.387695,127.137131 94.674377,126.357292 94.725769,125.503113 
	C94.953629,121.716133 94.900009,117.905647 94.786301,114.108513 
	C94.749794,112.889359 94.216042,111.685104 93.909775,110.474030 
	C93.336174,110.529343 92.762566,110.584648 92.188965,110.639954 
	C92.188965,116.138260 92.188965,121.636559 92.669647,127.951187 
M108.759033,116.702682 
	C108.759033,120.538414 108.759033,124.374146 108.759033,128.209885 
	C109.311623,128.191589 109.864220,128.173309 110.416809,128.155029 
	C110.416809,122.385780 110.416809,116.616531 110.416809,110.847282 
	C109.942383,110.822968 109.467949,110.798653 108.993523,110.774338 
	C108.915451,112.442764 108.837379,114.111198 108.759033,116.702682 
M116.897728,124.053917 
	C117.164368,124.947769 117.431000,125.841629 117.697639,126.735481 
	C117.890358,126.660324 118.083076,126.585167 118.275795,126.510010 
	C118.275795,121.784897 118.275795,117.059784 118.275795,112.334671 
	C117.816200,112.351387 117.356606,112.368103 116.897011,112.384811 
	C116.897011,115.971695 116.897011,119.558571 116.897728,124.053917 
z"/>
<path fill="#353535" opacity="1.000000" stroke="none" 
	d="
M159.035950,132.867142 
	C159.036667,126.725441 159.262497,121.053513 158.974701,115.407761 
	C158.687439,109.772537 157.885696,104.163536 157.283737,98.291733 
	C159.058197,98.291733 161.951385,98.291733 165.401611,98.291733 
	C165.401611,102.746162 165.401611,107.306252 165.401611,112.486252 
	C167.432541,111.943863 168.787643,111.538734 170.163132,111.222054 
	C176.372986,109.792328 183.342728,112.229568 186.644943,116.959541 
	C189.716415,121.358994 189.993988,127.527824 186.919281,131.998306 
	C183.124313,137.516022 177.815826,139.998260 171.021957,139.146317 
	C167.176636,138.664139 163.300522,138.427567 159.035934,138.044205 
	C159.035934,136.977188 159.035934,135.162796 159.035950,132.867142 
M167.248627,130.964325 
	C168.289536,132.245972 169.170242,133.712784 170.399643,134.776596 
	C175.211899,138.940643 181.053406,137.138794 182.761642,131.061523 
	C184.286697,125.635971 181.303452,117.886086 176.525803,114.861961 
	C170.885117,111.291565 165.063416,114.045868 164.974854,120.685211 
	C164.932388,123.868202 166.223419,127.068993 167.248627,130.964325 
z"/>
<path fill="#3E3E3E" opacity="1.000000" stroke="none" 
	d="
M227.811035,120.737106 
	C231.854889,119.898132 235.604614,119.277802 239.790771,118.585274 
	C239.792557,118.607994 240.020187,117.176384 239.508743,116.093971 
	C238.854538,114.709389 237.776962,112.873207 236.562988,112.587807 
	C235.346039,112.301704 233.659302,113.555817 232.318390,114.366356 
	C230.474274,115.481056 228.761749,116.813461 226.541962,117.425491 
	C227.143372,112.412323 230.172714,110.440903 234.553879,110.519005 
	C240.982422,110.633621 245.693100,113.817253 246.165115,119.240295 
	C246.721909,125.637276 246.295746,132.119812 246.295746,139.141922 
	C242.804886,139.141922 239.360443,138.978287 235.937683,139.181000 
	C231.027771,139.471771 226.908279,138.214493 224.747040,133.509583 
	C222.568924,128.767899 223.405640,124.436989 227.811035,120.737106 
M233.325272,120.979713 
	C228.169632,121.221725 227.623886,124.731117 228.047409,128.691895 
	C228.562393,133.507935 232.209015,137.840424 235.557175,137.067520 
	C237.331955,136.657822 239.468307,134.590881 240.040054,132.819702 
	C241.535919,128.185745 239.142715,124.055099 233.325272,120.979713 
z"/>
<path fill="#414141" opacity="1.000000" stroke="none" 
	d="
M324.473694,136.528839 
	C320.852203,132.522812 319.912048,128.318039 322.541107,123.903755 
	C325.924683,118.222664 331.257904,118.128899 338.600250,120.222839 
	C336.900269,116.875870 335.810547,114.730415 334.720856,112.584961 
	C332.735779,113.694252 330.806793,114.925232 328.747711,115.873917 
	C327.132202,116.618240 325.355835,117.013458 322.940002,117.793243 
	C326.116028,111.133179 328.675964,109.820404 334.813660,110.899399 
	C340.234100,111.852303 343.778503,115.320145 343.976013,120.485359 
	C344.204254,126.454926 344.029083,132.439926 344.029083,139.908051 
	C337.376221,138.830856 331.061218,137.808365 324.473694,136.528839 
M333.333862,121.909340 
	C328.209595,120.215065 324.758423,122.429932 325.484039,127.490631 
	C325.884735,130.285309 327.359467,133.177200 329.117859,135.424469 
	C330.056274,136.623795 332.874634,137.314651 334.389954,136.825836 
	C335.866486,136.349564 337.931183,133.849258 337.694641,132.635941 
	C337.004242,129.095154 335.293152,125.753403 333.333862,121.909340 
z"/>
<path fill="#393939" opacity="1.000000" stroke="none" 
	d="
M211.972397,138.725510 
	C204.754593,141.203522 198.567047,139.502441 194.256317,133.854996 
	C190.627075,129.100388 190.535751,121.610176 194.045670,116.576897 
	C197.484055,111.646217 204.155884,109.161057 209.836319,110.695145 
	C216.816116,112.580139 220.641769,117.320366 221.061859,124.906647 
	C213.457809,124.906647 205.864395,124.906647 198.263748,124.906647 
	C198.518448,133.247955 203.882996,138.558350 211.531952,138.127594 
	C211.933365,138.296860 211.972397,138.725510 211.972397,138.725510 
M198.845078,115.327164 
	C198.129837,117.542412 197.414612,119.757660 196.627869,122.194366 
	C203.290848,122.194366 209.007370,122.194366 214.858612,122.194366 
	C211.090759,113.174896 205.611649,110.623253 198.845078,115.327164 
z"/>
<path fill="#484848" opacity="1.000000" stroke="none" 
	d="
M367.965515,111.889130 
	C369.469299,111.349136 370.973053,110.809143 372.912445,110.112740 
	C374.189972,106.139336 370.443726,98.751488 379.687134,98.765465 
	C379.687134,102.342216 379.687134,106.071915 379.687134,109.939507 
	C381.347229,110.542427 382.721588,111.041580 385.253357,111.961082 
	C382.780731,112.883675 381.428314,113.388275 380.071136,113.894669 
	C379.700958,122.738228 378.462708,131.553360 385.101257,139.827469 
	C376.084961,138.251144 373.335754,135.249863 373.175934,128.051697 
	C373.072845,123.408234 373.156586,118.760628 373.156586,113.417870 
	C371.549042,113.417870 370.177551,113.417870 368.390015,113.359589 
	C367.971100,112.830574 367.968292,112.359848 367.965515,111.889130 
z"/>
<path fill="#404040" opacity="1.000000" stroke="none" 
	d="
M259.822479,129.466034 
	C261.291962,132.989044 262.716614,136.071136 264.353699,139.612793 
	C256.101288,138.418457 253.175064,135.251770 253.057724,128.115814 
	C252.981171,123.459824 253.043289,118.801537 253.043289,113.888260 
	C251.582123,113.427162 250.170837,112.981796 247.330933,112.085609 
	C250.034622,111.124680 251.389160,110.643257 252.912094,110.101990 
	C253.658539,105.653656 250.768600,99.073845 259.497406,98.717461 
	C259.497406,102.334068 259.497406,106.058533 259.497406,109.899010 
	C261.231079,110.541565 262.616211,111.054932 265.181915,112.005859 
	C262.790192,112.844437 261.539764,113.282852 259.777618,113.900688 
	C259.777618,118.813599 259.777618,123.919365 259.822479,129.466034 
z"/>
<path fill="#424242" opacity="1.000000" stroke="none" 
	d="
M275.306122,139.499084 
	C272.953827,139.005356 271.026245,138.490677 269.068848,138.144135 
	C265.949066,137.591766 265.503357,135.733994 266.599396,132.289047 
	C267.944672,133.267807 268.947266,134.167404 270.098328,134.794495 
	C271.788635,135.715332 273.595062,137.109131 275.333649,137.082932 
	C277.552673,137.049500 279.753418,135.802246 281.962036,135.078171 
	C280.788971,133.222534 279.958832,130.966431 278.365326,129.601715 
	C275.735748,127.349724 272.526428,125.791534 269.716888,123.729195 
	C264.477142,119.882950 264.849030,113.996849 270.981171,111.852356 
	C274.426025,110.647659 278.688660,111.393463 282.497925,111.899559 
	C283.416016,112.021530 283.997192,114.679474 284.733276,116.171196 
	C284.259735,116.500679 283.786163,116.830170 283.312622,117.159653 
	C282.272919,116.305595 281.357330,115.135208 280.165955,114.667793 
	C278.114197,113.862831 275.904968,113.186546 273.732849,113.086800 
	C272.777130,113.042908 271.123352,114.424187 270.937653,115.381653 
	C270.762817,116.283028 271.868622,117.809708 272.820435,118.478973 
	C275.259125,120.193695 278.002258,121.469917 280.483185,123.131264 
	C284.433411,125.776497 288.611298,128.741028 286.923004,134.284409 
	C285.280518,139.677338 280.269073,139.492920 275.306122,139.499084 
z"/>
<path fill="#404040" opacity="1.000000" stroke="none" 
	d="
M309.116882,114.551834 
	C301.612762,110.777542 296.548035,113.861526 296.584625,121.746246 
	C296.631989,131.950943 302.729492,138.649063 311.547272,138.182724 
	C305.941193,141.996490 296.189178,139.479889 291.863403,133.103119 
	C287.428467,126.565453 289.365448,117.179390 296.030426,112.910805 
	C304.117828,107.731232 313.619507,109.624649 318.737030,117.572945 
	C314.731506,119.482086 311.898193,117.751457 309.116882,114.551834 
z"/>
<path fill="#424242" opacity="1.000000" stroke="none" 
	d="
M367.569336,111.825127 
	C367.968292,112.359848 367.971100,112.830574 367.988159,113.654053 
	C367.104370,114.557083 366.064148,115.728745 365.330475,115.560860 
	C358.511688,114.000542 356.700104,115.174774 356.942108,122.016602 
	C357.136353,127.509499 357.868835,132.983368 358.392365,138.797195 
	C355.711639,138.797195 351.709137,138.797195 347.556885,138.797195 
	C351.359161,129.674835 351.601135,120.529198 346.536652,109.788750 
	C350.853333,110.963097 353.969208,111.893974 357.133453,112.611671 
	C357.901215,112.785805 358.820129,112.132607 359.683716,112.075821 
	C362.176331,111.911903 364.676178,111.858147 367.569336,111.825127 
z"/>
<path fill="#353535" opacity="1.000000" stroke="none" 
	d="
M102.874435,125.990448 
	C102.874428,130.987640 102.874428,135.487167 102.874428,139.986679 
	C102.304604,139.971329 101.734779,139.955994 101.164955,139.940643 
	C101.164955,126.299950 101.164955,112.659256 101.164955,99.018562 
	C101.734779,98.999077 102.304611,98.979591 102.874435,98.960098 
	C102.874435,107.804329 102.874435,116.648552 102.874435,125.990448 
z"/>
<path fill="#2B2B2B" opacity="1.000000" stroke="none" 
	d="
M104.621696,117.020943 
	C104.621773,112.169861 104.621773,107.813560 104.621773,103.457253 
	C105.197098,103.475121 105.772423,103.492989 106.347748,103.510857 
	C106.347748,114.171066 106.347748,124.831284 106.347748,135.491501 
	C105.772369,135.510529 105.196999,135.529556 104.621620,135.548584 
	C104.621620,129.537628 104.621620,123.526672 104.621696,117.020943 
z"/>
<path fill="#353535" opacity="1.000000" stroke="none" 
	d="
M90.572327,130.675415 
	C90.358185,132.203903 90.144981,133.264465 89.931770,134.325043 
	C89.538803,134.306335 89.145836,134.287628 88.752869,134.268921 
	C88.752869,124.426010 88.752869,114.583099 88.752869,104.740196 
	C89.359863,104.710297 89.966858,104.680397 90.573853,104.650490 
	C90.573853,107.347435 90.573853,110.044373 90.573853,112.741318 
	C90.573845,115.569176 90.573921,118.397041 90.573822,121.224899 
	C90.573723,124.219109 90.573463,127.213310 90.572327,130.675415 
z"/>
<path fill="#575757" opacity="1.000000" stroke="none" 
	d="
M96.680603,105.980370 
	C97.577316,106.147865 98.866821,106.684044 98.868301,107.223770 
	C98.891594,115.688774 98.760155,124.154434 98.607971,132.618927 
	C98.600998,133.006653 98.063629,133.384827 96.941025,133.773758 
	C95.914139,124.655388 96.148560,115.505089 96.680603,105.980370 
z"/>
<path fill="#2B2B2B" opacity="1.000000" stroke="none" 
	d="
M84.085487,121.885124 
	C84.085495,117.598846 84.085495,113.788788 84.085495,109.978729 
	C84.659485,109.993111 85.233475,110.007484 85.807465,110.021858 
	C85.807465,116.313698 85.807465,122.605537 85.807465,128.897369 
	C85.354042,128.937332 84.900627,128.977310 84.447205,129.017273 
	C84.326630,126.798630 84.206055,124.579987 84.085487,121.885124 
z"/>
<path fill="#212121" opacity="1.000000" stroke="none" 
	d="
M115.020119,111.231071 
	C115.016029,118.722786 115.016029,125.737381 115.016029,132.751968 
	C114.484161,132.737793 113.952293,132.723633 113.420425,132.709457 
	C113.420425,123.880547 113.420425,115.051636 113.420425,106.222725 
	C113.734962,106.165794 114.049507,106.108856 114.364044,106.051926 
	C114.584099,107.619263 114.804153,109.186607 115.020119,111.231071 
z"/>
<path fill="#575757" opacity="1.000000" stroke="none" 
	d="
M92.429306,127.543030 
	C92.188965,121.636559 92.188965,116.138260 92.188965,110.639954 
	C92.762566,110.584648 93.336174,110.529343 93.909775,110.474030 
	C94.216042,111.685104 94.749794,112.889359 94.786301,114.108513 
	C94.900009,117.905647 94.953629,121.716133 94.725769,125.503113 
	C94.674377,126.357292 93.387695,127.137131 92.429306,127.543030 
z"/>
<path fill="#212121" opacity="1.000000" stroke="none" 
	d="
M108.759171,116.241150 
	C108.837379,114.111198 108.915451,112.442764 108.993523,110.774338 
	C109.467949,110.798653 109.942383,110.822968 110.416809,110.847282 
	C110.416809,116.616531 110.416809,122.385780 110.416809,128.155029 
	C109.864220,128.173309 109.311623,128.191589 108.759033,128.209885 
	C108.759033,124.374146 108.759033,120.538414 108.759171,116.241150 
z"/>
<path fill="#484848" opacity="1.000000" stroke="none" 
	d="
M212.297668,138.649521 
	C211.972397,138.725510 211.933365,138.296860 211.950409,138.082291 
	C213.113068,136.083984 214.112869,134.179947 215.452591,132.556396 
	C216.439163,131.360840 217.870026,130.531906 219.102905,129.539612 
	C219.645950,130.171539 220.189011,130.803482 220.732056,131.435410 
	C218.029007,133.814789 215.325958,136.194153 212.297668,138.649521 
z"/>
<path fill="#212121" opacity="1.000000" stroke="none" 
	d="
M116.897369,123.599686 
	C116.897011,119.558571 116.897011,115.971695 116.897011,112.384811 
	C117.356606,112.368103 117.816200,112.351387 118.275795,112.334671 
	C118.275795,117.059784 118.275795,121.784897 118.275795,126.510010 
	C118.083076,126.585167 117.890358,126.660324 117.697639,126.735481 
	C117.431000,125.841629 117.164368,124.947769 116.897369,123.599686 
z"/>
<path fill="#FBFBFB" opacity="1.000000" stroke="none" 
	d="
M167.079575,130.613022 
	C166.223419,127.068993 164.932388,123.868202 164.974854,120.685211 
	C165.063416,114.045868 170.885117,111.291565 176.525803,114.861961 
	C181.303452,117.886086 184.286697,125.635971 182.761642,131.061523 
	C181.053406,137.138794 175.211899,138.940643 170.399643,134.776596 
	C169.170242,133.712784 168.289536,132.245972 167.079575,130.613022 
z"/>
<path fill="#FAFAFA" opacity="1.000000" stroke="none" 
	d="
M233.711884,121.032211 
	C239.142715,124.055099 241.535919,128.185745 240.040054,132.819702 
	C239.468307,134.590881 237.331955,136.657822 235.557175,137.067520 
	C232.209015,137.840424 228.562393,133.507935 228.047409,128.691895 
	C227.623886,124.731117 228.169632,121.221725 233.711884,121.032211 
z"/>
<path fill="#F9F9F9" opacity="1.000000" stroke="none" 
	d="
M333.658020,122.121483 
	C335.293152,125.753403 337.004242,129.095154 337.694641,132.635941 
	C337.931183,133.849258 335.866486,136.349564 334.389954,136.825836 
	C332.874634,137.314651 330.056274,136.623795 329.117859,135.424469 
	C327.359467,133.177200 325.884735,130.285309 325.484039,127.490631 
	C324.758423,122.429932 328.209595,120.215065 333.658020,122.121483 
z"/>
<path fill="#EEEEEE" opacity="1.000000" stroke="none" 
	d="
M199.073135,114.995209 
	C205.611649,110.623253 211.090759,113.174896 214.858612,122.194366 
	C209.007370,122.194366 203.290848,122.194366 196.627869,122.194366 
	C197.414612,119.757660 198.129837,117.542412 199.073135,114.995209 
z"/>
</svg>