<?xml version="1.0" standalone="no"?>
<!DOCTYPE svg PUBLIC "-//W3C//DTD SVG 20010904//EN"
 "http://www.w3.org/TR/2001/REC-SVG-20010904/DTD/svg10.dtd">
<svg version="1.0" xmlns="http://www.w3.org/2000/svg"
 width="300.000000pt" height="163.000000pt" viewBox="0 0 300.000000 163.000000"
 preserveAspectRatio="xMidYMid meet">
<metadata>
Created by potrace 1.10, written by Peter Selinger 2001-2011
</metadata>
<g transform="translate(0.000000,163.000000) scale(0.100000,-0.100000)"
fill="#000000" stroke="none">
<path d="M670 975 c-4 -39 0 -278 4 -282 3 -4 6 60 6 140 0 81 -2 147 -5 147
-3 0 -5 -2 -5 -5z"/>
<path d="M1046 963 c5 -10 10 -72 12 -138 l3 -120 70 0 c67 0 72 2 100 33 16
18 29 41 29 52 0 72 -68 119 -137 96 -22 -7 -23 -5 -23 43 0 50 0 51 -31 51
-26 0 -30 -3 -23 -17z m125 -93 c15 0 49 -62 49 -89 0 -30 -27 -61 -52 -61
-10 0 -30 11 -43 25 -46 45 -27 148 23 130 8 -3 18 -5 23 -5z"/>
<path d="M1708 969 c-12 -7 -18 -22 -18 -46 0 -27 -3 -34 -15 -29 -8 3 -15 1
-15 -4 0 -6 7 -10 15 -10 12 0 15 -14 15 -70 0 -57 4 -74 20 -90 21 -21 50
-27 50 -9 0 6 -7 17 -15 25 -10 11 -15 36 -15 80 0 50 3 64 15 64 8 0 15 4 15
10 0 5 -6 7 -14 4 -11 -4 -16 5 -18 40 -3 39 -5 44 -20 35z"/>
<path d="M2508 969 c-12 -6 -18 -22 -18 -44 0 -33 0 -33 -52 -37 -29 -2 -68
-1 -85 3 -34 7 -44 -6 -22 -28 12 -12 8 -116 -5 -145 -7 -16 -3 -18 34 -18 37
0 41 2 34 18 -4 9 -10 43 -12 74 -3 49 -1 58 17 68 15 8 27 8 41 0 16 -9 20
-8 20 5 0 8 7 15 15 15 12 0 15 -14 15 -65 0 -57 3 -69 25 -90 24 -25 55 -33
55 -16 0 5 -7 14 -15 21 -11 9 -15 32 -15 81 0 58 3 69 17 69 9 0 13 3 9 8 -4
4 -13 7 -19 7 -7 0 -10 15 -9 43 4 44 -1 48 -30 31z"/>
<path d="M583 835 c0 -58 3 -105 8 -105 5 0 9 47 9 105 0 58 -4 105 -9 105 -5
0 -8 -47 -8 -105z"/>
<path d="M690 835 c0 -63 4 -105 10 -105 6 0 10 42 10 105 0 63 -4 105 -10
105 -6 0 -10 -42 -10 -105z"/>
<path d="M644 835 c0 -55 1 -76 3 -47 2 29 2 74 0 100 -2 26 -3 2 -3 -53z"/>
<path d="M750 835 c0 -54 3 -95 6 -92 9 8 9 176 0 184 -3 3 -6 -38 -6 -92z"/>
<path d="M559 895 c-3 -29 0 -117 5 -122 3 -4 6 24 6 60 0 37 -2 67 -5 67 -3
0 -5 -2 -6 -5z"/>
<path d="M1334 890 c-33 -13 -54 -50 -54 -96 0 -35 5 -47 31 -68 42 -35 100
-36 135 -1 14 14 22 30 19 35 -10 16 -19 12 -37 -20 -25 -44 -68 -36 -96 17
-21 39 -15 43 67 43 l80 0 -11 31 c-18 52 -82 80 -134 59z m70 -31 c42 -33 33
-44 -34 -44 -64 0 -70 6 -44 43 19 28 44 28 78 1z"/>
<path d="M1521 878 c-20 -21 -21 -23 -5 -27 10 -2 23 4 30 14 17 23 48 15 52
-12 3 -20 0 -22 -28 -17 -24 5 -36 2 -55 -16 -32 -30 -32 -64 -1 -95 20 -20
34 -24 78 -23 l53 1 -3 76 c-4 85 -17 106 -68 117 -25 5 -36 1 -53 -18z m67
-70 c18 -18 15 -77 -4 -85 -34 -13 -75 43 -61 81 7 19 48 21 65 4z"/>
<path d="M1794 875 c-20 -20 -23 -29 -14 -45 6 -11 20 -25 33 -31 33 -17 67
-51 67 -66 0 -18 -64 -17 -80 2 -16 19 -30 19 -30 0 0 -36 106 -48 135 -15 26
28 8 63 -50 98 -47 28 -55 55 -19 60 11 2 27 -4 34 -13 16 -19 30 -19 30 0 0
15 -37 35 -66 35 -8 0 -26 -11 -40 -25z"/>
<path d="M1995 891 c-48 -20 -72 -74 -56 -124 22 -66 125 -91 171 -42 14 14
18 25 11 25 -7 0 -21 -10 -30 -22 -24 -29 -65 -18 -91 25 -51 83 3 162 73 107
27 -21 57 -27 57 -10 0 16 -62 50 -90 49 -14 0 -34 -4 -45 -8z"/>
<path d="M2183 885 c-13 -9 -23 -20 -23 -26 0 -14 22 -11 41 7 22 20 44 13 51
-14 5 -18 2 -20 -27 -15 -46 7 -90 -34 -81 -75 11 -45 41 -62 102 -59 l54 2 0
67 c0 55 -4 71 -22 92 -30 33 -67 41 -95 21z m68 -96 c6 -12 8 -32 5 -45 -8
-31 -49 -32 -70 -2 -20 29 -20 52 0 72 18 19 47 8 65 -25z"/>
<path d="M610 835 c0 -30 5 -55 10 -55 6 0 10 25 10 55 0 30 -4 55 -10 55 -5
0 -10 -25 -10 -55z"/>
<path d="M720 835 c0 -30 5 -55 10 -55 6 0 10 25 10 55 0 30 -4 55 -10 55 -5
0 -10 -25 -10 -55z"/>
<path d="M783 835 c0 -33 2 -45 4 -27 2 18 2 45 0 60 -2 15 -4 0 -4 -33z"/>
<path d="M500 835 c0 -25 5 -45 10 -45 6 0 10 20 10 45 0 25 -4 45 -10 45 -5
0 -10 -20 -10 -45z"/>
<path d="M830 835 c0 -28 4 -44 10 -40 6 3 10 21 10 40 0 19 -4 37 -10 40 -6
4 -10 -12 -10 -40z"/>
<path d="M807 863 c-11 -10 -8 -51 3 -58 6 -4 10 8 10 29 0 37 -2 41 -13 29z"/>
</g>
</svg>
